<svg xmlns="http://www.w3.org/2000/svg" width="542.353" height="86.011" viewBox="0 0 542.353 86.011"><g transform="translate(-891 -1135.989)"><g transform="translate(179.653 1259.013)"><g transform="translate(582 -369)"><g transform="translate(537.318 281.129) rotate(-45)"><path d="M47.06,68.039a27.875,27.875,0,0,1-5.575-.472A11.421,11.421,0,0,1,37.658,66.1a12.322,12.322,0,0,1-2.882-2.6q-1.89-2.551-3.969-5.481t-4.158-6.237q-2.079-3.307-4.252-6.8l-3.4-5.859q-3.685-6.615-7.229-13.372T5.245,12.568Q2.268,6.142,0,.756A18.5,18.5,0,0,1,3.213.142Q4.725,0,6.426,0a23.363,23.363,0,0,1,5.717.614,9.137,9.137,0,0,1,3.969,2.032,9.134,9.134,0,0,1,2.41,4.063q1.512,3.969,3.024,7.513T24.9,21.546q1.843,3.78,4.205,8.41l3.4,6.426q4.819,8.694,10.111,16.726a115.589,115.589,0,0,0,10.489,13.8,10.048,10.048,0,0,1-2.788.85A19.27,19.27,0,0,1,47.06,68.039ZM42.808,0A14.178,14.178,0,0,1,47.58.756,4.984,4.984,0,0,1,50.6,3.591q.9,2.079-.331,5.953-.945,3.024-2.221,6.048t-2.882,6q-1.606,2.977-3.638,6.048t-4.489,6.19a80.947,80.947,0,0,1-5.481,6.237L24.286,28.161h4.536q1.228-2.173,2.268-4.489t1.984-4.914q.945-2.6,1.748-5.386t1.606-5.953q.8-3.166,1.465-6.662A10.139,10.139,0,0,1,40.209.142,20.451,20.451,0,0,1,42.808,0ZM9.828,67.661a13.4,13.4,0,0,1-5.056-.9A5.394,5.394,0,0,1,1.7,63.976q-.85-1.89.472-5.008.945-1.984,2.126-4.158a48.716,48.716,0,0,1,2.788-4.489q1.606-2.315,3.5-4.819t4.252-5.1q2.362-2.6,5.1-5.434l6.331,11.529h-3.5q-1.039,1.8-1.937,3.685T19.183,54.1q-.756,2.032-1.417,4.158t-1.228,4.252q-.567,2.126-.945,4.394a13.867,13.867,0,0,1-2.693.567A25.508,25.508,0,0,1,9.828,67.661Z" transform="translate(48.111 0) rotate(45)" fill="#c3c3c9"/><path d="M25.515,0a25.388,25.388,0,0,1,13.7,3.591A23.042,23.042,0,0,1,48.1,14.364q3.118,7.182,3.118,18.144v2.079q0,11.812-3.166,19.656T39.217,66.007a22.679,22.679,0,0,1-13.23,3.922A26.245,26.245,0,0,1,12,66.338a22.566,22.566,0,0,1-8.93-10.82Q0,48.289,0,37.516V35.437Q0,24.1,2.977,16.159A25.236,25.236,0,0,1,11.671,4.111,23.084,23.084,0,0,1,25.515,0ZM12.757,38.461A43.974,43.974,0,0,0,13.844,49.47a18.585,18.585,0,0,0,2.788,6.284,26.381,26.381,0,0,0,3.544,1.039,19.651,19.651,0,0,0,4.111.378,13.9,13.9,0,0,0,7.8-2.079q3.166-2.079,4.772-7.513t1.606-15.356V30.9a56.141,56.141,0,0,0-.378-6.9,23.307,23.307,0,0,0-1.276-5.386,19.384,19.384,0,0,0-2.221-4.252,20.074,20.074,0,0,0-4.111-1.276,24.6,24.6,0,0,0-4.3-.331,11.555,11.555,0,0,0-7.513,2.41q-2.977,2.41-4.441,7.7a54.569,54.569,0,0,0-1.465,14.08Z" transform="translate(83.662 33.948) rotate(45)" fill="#c3c3c9"/></g><g transform="translate(-768 152)"><text transform="translate(897.347 161.987)" fill="#c3c3c9" font-size="72" font-family="Recursive" font-weight="700"><tspan x="0" y="0">Monte Carlo</tspan></text></g></g></g></g></svg>